<svg version="1.1" viewBox="0.0 0.0 447.84514435695536 100.0" fill="none" stroke="none" stroke-linecap="square" stroke-miterlimit="10" xmlns:xlink="http://www.w3.org/1999/xlink" xmlns="http://www.w3.org/2000/svg"><clipPath id="p.0"><path d="m0 0l447.84515 0l0 100.0l-447.84515 0l0 -100.0z" clip-rule="nonzero"/></clipPath><g clip-path="url(#p.0)"><path fill="#000000" fill-opacity="0.0" d="m0 0l447.84515 0l0 100.0l-447.84515 0z" fill-rule="evenodd"/><defs><linearGradient id="p.1" gradientUnits="userSpaceOnUse" gradientTransform="matrix(8.641630375466482 0.0 0.0 8.641630375466482 0.0 0.0)" spreadMethod="pad" x1="0.21215119512138877" y1="0.2492050605046583" x2="0.2121199217659316" y2="8.89083543591455"><stop offset="0.0" stop-color="#db0000"/><stop offset="1.0" stop-color="#540303"/></linearGradient></defs><path fill="url(#p.1)" d="m36.885536 14.30851c0.2448349 0 0.505394 0.013158798 0.7816658 0.039473534c1.3175926 0.11584854 3.2327042 0.46822262 5.745331 1.0571232c0.80690384 0.24135399 1.6035881 0.7481947 2.3900566 1.5205202c0.7864723 0.76267624 1.4299507 1.6218891 1.9304314 2.5776463c0.50048065 0.94610023 0.750721 1.8053131 0.750721 2.5776443c0.13277817 1.5446568 -0.22470856 2.9975967 -1.0724602 4.3588257c-0.84775925 1.361227 -2.0121536 2.6355686 -3.4931602 3.8230228c-1.4708061 1.1874542 -3.0999222 2.2735424 -4.8873634 3.258257c-1.7874413 0.9750633 -3.5902023 1.8777237 -5.408272 2.7079773c-1.9508514 0.7723274 -3.7893581 1.4722481 -5.5155163 2.0997658c-1.7261581 0.6178627 -3.309311 0.9847183 -4.7494736 1.1005669c-0.25535202 -0.24135208 -0.30641747 -0.6275177 -0.15320778 -1.1584892c0.16342735 -0.53097916 0.6690159 -1.6122398 1.5167675 -3.2437782c0.8477497 -1.631546 2.180666 -4.1995335 3.9987488 -7.703972c0.69454193 -1.6605072 1.3993034 -3.2148151 2.1142826 -4.6629314c0.7251835 -1.4577694 1.3380203 -2.6597042 1.8385048 -3.6058064c0.5004883 -0.94610023 0.7507248 -1.5108643 0.7507248 -1.694294c0.31663513 -1.1874542 0.7711601 -2.017705 1.3635597 -2.490757c0.47626114 -0.37386227 1.1758156 -0.56079483 2.0986595 -0.56079483zm64.820335 -6.4896445c-0.07836914 0 -0.15177917 0.009027958 -0.22022247 0.02708149c0 0 -0.39323425 0.028962612 -1.1797104 0.08688688c-0.78647614 0.057924747 -1.6801987 0.10136795 -2.6811523 0.13033009c-0.3336563 0.009654045 -0.6571045 0.0144815445 -0.9703293 0.0144815445c-0.6264496 0 -1.2120438 -0.019309044 -1.7567902 -0.05792427c-1.5729446 0.18342686 -2.9416122 0.38133526 -4.105995 0.5937271c-1.1541748 0.2027359 -1.8895798 0.47787762 -2.2062073 0.82542515c-0.7456131 0.12550259 -1.608696 0.29444885 -2.5892334 0.5068407c-0.97032166 0.2027359 -1.8180771 0.34754753 -2.5432663 0.43443394c-0.2383194 0.028962135 -0.4369278 0.04344368 -0.5958023 0.04344368c-0.3177719 0 -0.47665405 -0.05792427 -0.47665405 -0.17377377c-0.22261047 -0.5723152 -0.8838272 -0.8584728 -1.983635 -0.8584728c-0.16174316 0 -0.33296204 0.0061883926 -0.5136719 0.018566132c-1.409523 0.086886406 -2.8701096 0.69026756 -4.381775 1.8101435c-1.4401627 0.77232647 -2.7577515 1.6508512 -3.9527817 2.6355696c-1.1950302 0.9750624 -2.1244965 1.8487577 -2.7884064 2.621087c-0.6536865 0.7723274 -0.9141388 1.2743416 -0.78136444 1.5060406c0.30641937 0.35720253 0.39834595 0.8350811 0.27577972 1.4336338c-0.12256622 0.5889015 -0.6536865 1.3564014 -1.5933762 2.3025017c-0.500473 0.95575714 -1.0826721 2.0418434 -1.7465744 3.2582588c-0.65369415 1.2067623 -0.9805374 1.9597816 -0.9805374 2.25906c0 0 0.015319824 0.014480591 0.045959473 0.04344368c0.030647278 0.028961182 -0.17363739 0.25100517 -0.61283493 0.666132c-0.69454956 1.0716057 -1.624012 2.481102 -2.7883987 4.2284966c-1.1541748 1.7473946 -2.3134537 3.5864983 -3.4778404 5.5173187c-1.1643867 1.9308167 -2.1193924 3.7264824 -2.8650055 5.386986c-0.50048065 1.0619545 -1.0367088 2.5293808 -1.6086922 4.4022713c-0.56176376 1.8632355 -0.97031784 3.7168236 -1.2256699 5.5607605c-0.24513626 1.8342743 -0.24513626 3.3161812 0 4.445713c0.3779106 1.9018593 0.8477516 3.4320297 1.4095192 4.590523c0.57198334 1.1488419 1.3890991 2.230095 2.4513435 3.2437744c1.6342239 1.0619583 3.4216576 2.2011414 5.3623085 3.4175568c1.9508591 1.2164154 3.896614 1.8873749 5.8372574 2.0128784c3.0743866 -0.06757355 6.557335 -0.44408417 10.448837 -1.1295319c3.8915024 -0.67578125 7.502121 -1.8439255 10.831863 -3.5044327c2.073433 -1.1295319 3.8761826 -2.4038734 5.408272 -3.8230286c1.542305 -1.4288025 2.6862564 -2.7803802 3.4318771 -4.054722c0.7558365 -1.2743378 0.9447937 -2.2059631 0.56687164 -2.7948608c-0.061279297 -0.29927444 -0.5311203 -0.5502815 -1.4095154 -0.7530174c-0.41117096 -0.09941864 -0.8704529 -0.14912796 -1.3778458 -0.14912796c-0.57657623 0 -1.2153015 0.06418991 -1.9161453 0.19256973c-1.3175964 0.23169708 -2.6351929 0.8833504 -3.9527893 1.954956c-0.6843262 0.5309715 -1.1848068 0.9460945 -1.5014496 1.2453766c-0.15831757 0.14964294 -0.25279236 0.2244606 -0.283432 0.2244606c-0.030639648 0 0.0025482178 -0.07481766 0.09958649 -0.2244606c-0.3166275 0 -0.5566559 0.12067795 -0.72008514 0.36203003c-0.15320587 0.23169708 -0.48005676 0.4682274 -0.9805374 0.70957565c-0.3166275 0.23169708 -1.1950226 0.67578506 -2.6351852 1.3322678c-1.4401627 0.64682007 -4.014076 1.2695084 -7.7217255 1.8680649c-1.254631 0.49209976 -2.4022827 0.7381439 -3.4429703 0.7381439c-0.20471954 0 -0.40530396 -0.009525299 -0.6017456 -0.028564453c-1.1950302 -0.11584854 -2.4207 -0.2027359 -3.6770096 -0.26066208c-2.1347122 -0.5985565 -3.7536163 -1.3853683 -4.85672 -2.3604279c-1.0928917 -0.9847183 -1.8895798 -2.157692 -2.3900604 -3.518917c-0.24513245 -0.6564827 -0.33705902 -1.5736237 -0.2757759 -2.751419c0.061286926 -1.1874542 0.2604561 -2.4617958 0.5975151 -3.8230247c0.34727097 -1.3708801 0.7405052 -2.650051 1.1797104 -3.8375053c0.4494133 -1.1874542 0.939682 -2.1190758 1.4708023 -2.7948608c0.39281464 -0.50693893 0.7604866 -0.7604103 1.1030083 -0.7604103c0.1206131 0 0.23810959 0.031425476 0.3524742 0.09427643c-0.106803894 1.0263748 0.6395798 1.5395584 2.2391663 1.5395584c0.23600769 0 0.4905777 -0.011173248 0.7637253 -0.03351593c2.1347122 -0.17377472 4.9282227 -0.73854065 8.380524 -1.6942978c4.0855713 -1.0619507 7.476593 -1.8728943 10.173065 -2.4328308c2.6964798 -0.5695915 4.780121 -1.0619507 6.250923 -1.4770775c1.4810181 -0.4151268 2.441124 -0.94610596 2.8803253 -1.592926c0.43919373 -0.6564789 0.43919373 -1.5784454 0 -2.7658997c-0.37791443 -1.0136795 -1.0213928 -1.8873749 -1.9304276 -2.621088c-0.4860916 -0.39749336 -0.9677887 -0.596241 -1.4451141 -0.596241c-0.41532898 0 -0.8273468 0.15047455 -1.2360458 0.45142937c-0.63326263 0.06757927 -1.343132 0.18825531 -2.1296005 0.36203003c-0.77625275 0.1737709 -2.0938492 0.48752975 -3.9527893 0.94127274c-1.8487167 0.4440918 -4.7188263 1.1391869 -8.610336 2.0852852c-0.56175995 0.11584854 -1.2971649 0.23652649 -2.2062073 0.36203003c-0.90904236 0.11584854 -1.680191 0.31858444 -2.3134537 0.6082077c-0.24513245 0 -0.8068924 -0.08688736 -1.6852951 -0.26066208c-0.8783951 -0.1737709 -1.3175964 -0.26065826 -1.3175964 -0.26065826c-0.25534058 -0.29927826 0.040863037 -0.9943733 0.88861084 -2.0852852c0.84776306 -1.1005707 2.150032 -2.8093452 3.9068298 -5.1263275c0.69454956 -1.2453804 1.3839874 -2.490759 2.0683136 -3.7361374c0.69454956 -1.2453785 1.2614212 -2.017706 1.7006226 -2.3169842c0.939682 -1.361227 1.8027573 -2.3073292 2.5892258 -2.8383045c0.78647614 -0.54062843 1.7108383 -0.89783096 2.773079 -1.0716057c1.072464 -0.18342972 2.3900604 -0.4199524 3.9527893 -0.70957565c2.1959991 -0.48270416 3.8761826 -0.8254261 5.040573 -1.028162c1.1643829 -0.2123909 2.2623749 -0.3909912 3.2939835 -0.53580284c1.0316086 -0.14481163 2.4922028 -0.33789158 4.381775 -0.57924557c2.573906 -0.29927826 4.45327 -0.83025455 5.6380844 -1.592927c1.1950302 -0.77232647 1.5729446 -1.694294 1.1337433 -2.7658987c-0.500473 -1.0619516 -1.1745987 -1.9018583 -2.0223541 -2.51972c-0.7156372 -0.5297222 -1.2857056 -0.79458284 -1.7102051 -0.79458284zm-64.8056 -0.67042637c-2.1677399 0 -4.297043 0.23250246 -6.387924 0.69750786l-8.656298 2.7514186c-0.69454193 0.29927635 -1.011179 0.82059765 -0.94989395 1.5639639c0.06128311 0.74336433 0.4085617 1.4384594 1.0418186 2.0852861c1.0622425 0 1.8129673 0.3282404 2.2521706 0.98471737c0.43920326 0.6468258 0.5362301 1.269516 0.29109573 1.8680687c-1.9508533 3.9678345 -3.4931602 7.259882 -4.6269054 9.876144c-1.1235275 2.6066055 -2.2164116 5.0973644 -3.2786694 7.472273c-0.43920326 1.0619507 -1.1337452 2.650051 -2.0836391 4.7642975c-0.9396763 2.1045952 -1.9304314 4.344345 -2.972252 6.7192535c-1.031601 2.3652573 -1.9406347 4.513294 -2.7271166 6.444111c-0.77626324 1.9308243 -1.2920713 3.3113594 -1.547409 4.141609c-0.30641794 0.5888977 -0.77626324 1.6122284 -1.4095211 3.0700035c-0.6230545 1.4481163 -1.0622578 2.8865776 -1.317596 4.315384c-1.062243 2.307331 -1.8129661 3.919567 -2.2521696 4.8367043c-0.43920374 0.92678833 -0.5515518 1.5784454 -0.3370595 1.954956c0.22471118 0.3861618 0.7098775 0.9364395 1.4554837 1.6508484c1.0724618 0.77233124 2.3287742 1.158493 3.7689369 1.158493c1.4401627 0 2.2879133 -0.29445648 2.5432663 -0.8833542c2.0121374 -5.0490875 3.784258 -9.678226 5.316346 -13.887421c1.4344473 -3.9148216 2.471301 -6.9319153 3.1105738 -9.05127l0 0c0.7705326 1.7341805 1.424078 3.2114449 1.960638 4.4317856c0.6639004 1.4770775 1.6546555 2.9589844 2.972252 4.445713c3.452299 3.7361336 6.557337 6.6999397 9.315096 8.891422c2.7679787 2.2011337 5.530838 4.069206 8.288597 5.60421c1.4503822 0.89782715 2.752655 1.3757095 3.906826 1.4336319c0.2794571 0.013900757 0.5397911 0.020851135 0.7809906 0.020851135c0.7638359 0 1.3359375 -0.06970215 1.7163124 -0.20910645c0.2553444 -0.057922363 0.5515518 -0.47305298 0.88861084 -1.2453766c0.34727097 -0.77233124 0.5975151 -1.5881042 0.7507248 -2.447319c0.16341782 -0.8592148 0.056171417 -1.4336319 -0.3217392 -1.723259c-1.756794 -0.8302536 -3.733181 -2.046669 -5.929184 -3.6492462c-2.1959877 -1.6025772 -4.269409 -3.2775612 -6.220276 -5.0249596c-1.9406509 -1.7570457 -3.4727402 -3.2582588 -4.596266 -4.5036354c-1.3890972 -1.4770775 -2.7577572 -3.166542 -4.105995 -5.0684013c-0.91941833 -1.2969627 -1.7580872 -2.634327 -2.5160217 -4.0120926l0 0c0.55447006 -0.06010437 1.0662975 -0.14672089 1.5354843 -0.25984955c1.8180828 -0.5309715 3.6974506 -1.1681442 5.6380863 -1.9115105c1.9508514 -0.74336624 3.7127533 -1.4674263 5.2857018 -2.1721725c1.6852989 -0.6564827 3.5135841 -1.5929298 5.4848785 -2.8093414c1.9814949 -1.2164192 3.8966026 -2.5631638 5.745331 -4.0402412c1.8589363 -1.4867325 3.4931602 -2.9686356 4.9026794 -4.445713c1.409523 -1.4867325 2.369629 -2.852787 2.8803253 -4.0981655c0.68433 -1.6605072 0.9447861 -3.5140934 0.78136826 -5.5607624c-0.15320969 -2.046667 -0.9192543 -4.0788536 -2.2981339 -6.0965633c-1.3788795 -2.017705 -3.5748749 -3.8568115 -6.5879784 -5.517318c-2.757759 -1.361228 -5.689152 -2.177 -8.794186 -2.4473138c-0.90563965 -0.07884216 -1.8047523 -0.11826229 -2.697361 -0.11826229z" fill-rule="evenodd"/><defs><linearGradient id="p.2" gradientUnits="userSpaceOnUse" gradientTransform="matrix(8.641630375466482 0.0 0.0 8.641630375466482 0.0 0.0)" spreadMethod="pad" x1="0.21215119512138877" y1="0.2492050605046583" x2="0.2121199217659316" y2="8.89083543591455"><stop offset="0.0" stop-color="#db0000"/><stop offset="1.0" stop-color="#540303"/></linearGradient></defs><path fill="url(#p.2)" d="m362.41132 2.1548553c-0.2451477 0 -0.61795044 0.014481306 -1.1184387 0.04344344c-0.5004883 0.028962374 -0.87838745 0.13033032 -1.133728 0.3041041c-0.109191895 -0.025276423 -0.21255493 -0.037914038 -0.3100891 -0.037914038c-0.3494568 0 -0.62402344 0.16227674 -0.82366943 0.48682976c-0.24511719 0.4151256 -0.43408203 0.8592136 -0.566864 1.3322656c0 0.3572011 -0.3166504 1.3370919 -0.94989014 2.9396734c-0.6230774 1.6025796 -1.3890991 3.4416862 -2.2981567 5.5173182c-0.9090271 2.0756302 -1.8180542 4.0498924 -2.7271118 5.9227905c-0.9090271 1.8632412 -1.6444397 3.2679138 -2.2062073 4.214014c0 0.24135399 -0.08169556 0.4537449 -0.24511719 0.6371708c-0.15322876 0.17377281 -0.22982788 0.3765087 -0.22982788 0.6082077c0 0.24135399 -0.12765503 0.54063225 -0.38302612 0.89783096c-0.24511719 0.34754753 -0.36767578 0.6709595 -0.36767578 0.97023773c-0.2553711 0.24135399 -0.49539185 0.6613064 -0.7200928 1.2598591c-0.21450806 0.5889015 -0.32174683 1.1198788 -0.32174683 1.592926c0 0.4151287 -0.14297485 0.8302555 -0.4289856 1.2453804c-0.27575684 0.4151268 -0.53622437 0.6226883 -0.7813721 0.6226883c-0.19406128 0.29927826 -0.51068115 0.90748596 -0.94989014 1.8246269c-0.43920898 0.91713715 -0.8630676 1.8970299 -1.271637 2.9396706c-0.40853882 1.0329895 -0.7353821 1.935646 -0.9805298 2.7079773c0 0.4151268 -0.12765503 0.9654083 -0.38302612 1.6508484c-0.25534058 0.6757889 -0.566864 1.3708801 -0.9345703 2.0852852c-1.133728 4.2671127 -1.2001343 7.250229 -0.19915771 8.949352c0.8590088 1.4352226 1.9870605 2.1528397 3.3841553 2.1528397c0.24749756 0 0.50341797 -0.022521973 0.76779175 -0.067554474c0.5004883 -0.24135208 1.0316162 -0.6130295 1.5933838 -1.1150475c0.5617676 -0.50201035 0.9090271 -1.4674187 1.0418091 -2.8962326c0.122558594 -1.3033028 0.43408203 -2.8865776 0.9345703 -4.749817c0.5004883 -1.8728981 1.3482361 -4.3829613 2.543274 -7.530197c0.6230469 -1.1777992 1.0775757 -2.1963043 1.3635559 -3.055523c0.28601074 -0.86886597 0.4289856 -1.4191513 0.4289856 -1.6508503c0 0 0.015319824 -0.16411781 0.045959473 -0.49235916c0.030639648 -0.32823944 0.16854858 -0.49235916 0.41366577 -0.49235916c0.25534058 -0.23169708 0.4289856 -0.46339607 0.52090454 -0.69509506c0.091918945 -0.24135208 0.17364502 -0.48270607 0.2451477 -0.72405624c0 -0.17377472 0.122558594 -0.6033821 0.3677063 -1.2888222c0.25534058 -0.68544006 0.5515442 -1.4432869 0.88861084 -2.2735405c0.34725952 -0.8302517 0.7098694 -1.5398273 1.0877686 -2.1287289c0.3166504 -0.71440315 0.59750366 -1.3081303 0.84265137 -1.7811813c0.25534058 -0.47305298 0.38302612 -0.8302555 0.38302612 -1.0716057c0 -0.23169899 0.2962036 -0.8495617 0.88861084 -1.8535862c0.6026001 -1.0136814 1.2154541 -2.085287 1.838501 -3.214816c1.0111694 -1.7184305 1.920227 -3.287221 2.7271118 -4.706373c0.81710815 -1.4288063 1.2563171 -2.7079754 1.3175964 -3.8375049c0 -0.7144041 -0.030639648 -1.4239802 -0.091918945 -2.1287289c-0.061279297 -0.7144041 -0.3421631 -1.2791688 -0.84265137 -1.6942945c-0.43920898 -0.47305036 -0.9447937 -0.8254256 -1.5167542 -1.0571239c-0.5617676 -0.24135184 -0.84265137 -0.36202884 -0.84265137 -0.36202884zm-80.611664 62.76806c0 0 0 0 0 0l0 0c0 0 0 0 0 0zm58.180176 -7.0326157c-0.036193848 0 -0.0713501 8.31604E-4 -0.105529785 0.0025024414c-0.5924072 0.028961182 -1.5167847 0.42960358 -2.7731018 1.2019348c-1.8180542 1.1198769 -2.9313965 2.288021 -3.3399353 3.5044365c-0.40856934 1.2164192 0.015319824 2.418354 1.271637 3.6058083c1.0622253 0.77233124 2.0325623 1.1729736 2.9109497 1.2019348c0.050689697 0.0016708374 0.1020813 0.0025024414 0.15423584 0.0025024414c0.851593 0 1.8981934 -0.2228775 3.1397705 -0.6686325c2.5126343 -1.1874542 3.89151 -2.5342026 4.136627 -4.040245c0.2553711 -1.5156898 -0.6843262 -2.8962288 -2.8190308 -4.1416054c-1.1260986 -0.445755 -1.9846191 -0.6686363 -2.5756226 -0.6686363zm-31.002625 -46.235416c0.26089478 0 0.79782104 0.12537384 1.6108093 0.3761177c0.9805298 0.28962326 2.0989685 0.7192316 3.3552551 1.2888222c1.2563171 0.5599394 2.4768982 1.1536665 3.6617126 1.7811813c1.1950073 0.61786366 2.139801 1.1922846 2.8343506 1.7232561c2.0019226 1.6025829 3.6004028 3.4754772 4.7954407 5.6186867c1.1950378 2.1335545 1.9151001 4.537426 2.1602478 7.2116127c0.25534058 2.6645298 -0.025543213 5.6235104 -0.84265137 8.876944c-0.3779297 1.5446587 -1.006073 3.2534294 -1.8844604 5.1263275c-0.87841797 1.8632393 -1.7414856 3.5527039 -2.5892334 5.0684013c-0.8477478 1.5156937 -1.5218811 2.5100632 -2.0223694 2.9831161c0 0.35720062 -0.061279297 0.69992065 -0.18383789 1.0281639c-0.122558594 0.31858444 -0.25024414 0.748188 -0.38302612 1.2888222c-0.18383789 0.11584854 -0.66900635 0.5599327 -1.4554749 1.332264c-0.7864685 0.77233124 -1.5882568 1.5591431 -2.4053955 2.3604279c-0.80688477 0.7916336 -1.3993225 1.3660507 -1.7772217 1.723259c-0.51068115 0.18342209 -0.93966675 0.34754562 -1.2869568 0.49235916c-0.33706665 0.14480972 -0.566864 0.33789444 -0.6894226 0.5792427c0 0 -0.81710815 0.6371727 -2.451355 1.9115143c-1.6342163 1.2743416 -4.1111145 2.9782867 -7.4306335 5.111847c-0.69451904 0.48270416 -1.6239929 0.8109436 -2.788391 0.9847183c-1.1541748 0.17377472 -2.3440857 0.27513885 -3.5697632 0.30410004c-1.2256775 0.038612366 -2.27771 0.14481354 -3.1560974 0.31858826c-0.23803711 0.032928467 -0.48065186 0.04938507 -0.72787476 0.04938507c-0.8070679 0 -1.6629944 -0.17547607 -2.5677795 -0.5264206l0 0c5.493164E-4 -0.0050964355 0.0010986328 -0.0102005005 0.0016479492 -0.015327454c0.061309814 -0.5599365 0.09194946 -0.8399048 0.09194946 -0.8399048c0.010620117 0.0024108887 0.021240234 0.0036239624 0.03189087 0.0036239624c0.24429321 0 0.48391724 -0.63838196 0.71881104 -1.9151382c0.25534058 -1.3322601 0.6639099 -3.007248 1.2256775 -5.0249557c0.5004883 -3.861637 1.1286316 -6.8302727 1.8844604 -8.905907c0.75582886 -2.075634 1.4759216 -3.6154633 2.1602478 -4.619488c0 -0.29927444 0.1583252 -0.90748215 0.47494507 -1.8246231c0.3166504 -0.91714096 0.7098694 -1.9983978 1.179718 -3.2437782c0.46984863 -1.2453804 0.86309814 -2.4328346 1.179718 -3.5623627c1.0622253 -2.7900352 2.1704407 -5.7393646 3.3246155 -8.847982c1.1643982 -3.1182728 2.2623901 -6.038639 3.2940063 -8.761095c1.0418091 -2.732111 1.9201965 -4.971863 2.6351929 -6.7192535c0.7251587 -1.7570448 1.2154236 -2.6645308 1.4707947 -2.722456c0.029815674 -0.009393692 0.06997681 -0.014088631 0.12045288 -0.014088631zm-85.777145 -4.1709633c-1.2563171 0 -2.2317352 0.06275225 -2.9262848 0.18825483c-4.075363 0.5889001 -7.6808624 1.8777223 -10.816544 3.866467c-3.1356812 1.9887438 -5.6176605 4.2284956 -7.4459534 6.7192526c-0.6843262 0.94610214 -1.0928802 1.7763519 -1.2256622 2.490759c-0.12257385 0.70475006 -0.24513245 1.713604 -0.3677063 3.0265598c0.12257385 0.88817596 0.19917297 1.8825493 0.22981262 2.9831161c0.030639648 1.0909119 0.23492432 1.7860069 0.61283875 2.0852852c0.31663513 0.94610214 0.38302612 1.9839191 0.19917297 3.1134472c0 0 0.13787842 0.35720253 0.41366577 1.0716076c0.28598022 0.70475006 0.6179352 1.3853607 0.9958496 2.0418396c1.7567902 3.6782112 3.2633514 7.1923027 4.5196686 10.542278c1.2563019 3.3499756 2.2113037 6.270336 2.8650055 8.761093c0.66389465 2.490757 0.89881897 4.3009033 0.7047577 5.4304314c-0.75582886 1.0040283 -1.2767487 1.7473984 -1.5627289 2.2300987c-0.27578735 0.47304916 -0.6026306 0.76750183 -0.98054504 0.8833504c-0.37791443 0.11584854 -1.0673523 0.1737709 -2.0683136 0.1737709c-1.5729523 -0.057922363 -2.5483856 -0.23169708 -2.9262848 -0.52132034c-0.3677063 -0.29927444 -0.9601135 -0.748188 -1.7772217 -1.3467445c-1.1950378 -0.6468239 -1.8742676 -1.2502022 -2.0376892 -1.8101463c-0.15319824 -0.5695915 -0.5106964 -1.298481 -1.072464 -2.1866531c0.12257385 -0.8302536 0.05618286 -1.5543137 -0.19915771 -2.1721725c-0.2451477 -0.6275177 -0.3677063 -0.94127274 -0.3677063 -0.94127274c0.25534058 -0.1834259 0.13278198 -0.51166534 -0.3677063 -0.9847183c-0.500473 -0.47304916 -1.1592712 -0.87369156 -1.9763947 -1.2019348c-0.3912964 -0.15718842 -0.7755585 -0.23577881 -1.1528015 -0.23577881c-0.41052246 0 -0.8127289 0.093070984 -1.206604 0.27922058c-0.69454956 0.29927444 -1.2001495 0.90748215 -1.5167694 1.8246231c-0.306427 0.9171448 -0.45962524 1.8101463 -0.45962524 2.679016c0 0.8592148 0.091918945 1.4046707 0.2757721 1.6363678c0.5719757 0.5985565 0.54133606 0.89783096 -0.091918945 0.89783096c-0.2451477 0 -0.29110718 0.2654915 -0.13789368 0.796463c0.1532135 0.53097534 0.3574829 1.1247025 0.61283875 1.7811813c0.81710815 2.3749084 2.3389893 4.286419 4.565613 5.734539c2.2266388 1.4577637 4.815872 2.4376526 7.767685 2.9396667c1.7246704 0.29331207 3.4161987 0.4399643 5.0746155 0.4399643c1.1800232 0 2.343277 -0.07424927 3.4897614 -0.22274017c0.43920898 -0.115852356 1.0009766 -0.48753357 1.6853027 -1.1150513c0.69454956 -0.6178589 1.3839874 -1.341919 2.0683136 -2.1721725c0.69454956 -0.8302536 1.2767487 -1.6170654 1.746582 -2.3604279c0.46984863 -0.74337006 0.7047577 -1.2936516 0.7047577 -1.6508522c-0.061279297 0 -0.091918945 -0.08688736 -0.091918945 -0.26065826c0 -0.17377472 0.030639648 -0.26066208 0.091918945 -0.26066208c0.43920898 0 0.7047577 -0.74336624 0.7966919 -2.2300987c0.102142334 -1.4867287 -0.06639099 -3.369278 -0.5055847 -5.647648c-0.43920898 -2.288021 -1.2869568 -4.619484 -2.543274 -6.9943924c-0.061279297 -0.8302574 -0.26556396 -1.7039528 -0.61283875 -2.62109c-0.34727478 -0.91714096 -0.58218384 -2.027359 -0.7047577 -3.3306618c-1.1950226 -0.8302536 -2.0427856 -1.5881004 -2.5432587 -2.2735405c-0.5004883 -0.68544006 -0.8120117 -1.2357254 -0.9345856 -1.6508522c0 -1.1198769 -0.06637573 -1.9018555 -0.19915771 -2.3459473c-0.12257385 -0.44408798 -0.18385315 -0.7868118 -0.18385315 -1.0281601c0 -0.11584854 -0.081710815 -0.5889015 -0.24513245 -1.4191551c-0.1532135 -0.8302498 -0.29110718 -1.9887409 -0.41366577 -3.4754734c-0.5004883 -1.5446587 -0.89372253 -2.7900372 -1.179718 -3.7361374c-0.2757721 -0.94610023 -0.19406128 -1.8632393 0.24513245 -2.751419c0.5004883 -2.017706 1.7057343 -3.6926918 3.615738 -5.0249577c1.9202118 -1.3419209 4.448166 -2.4569702 7.583832 -3.3451462c1.0009613 -0.17377377 2.0478973 -0.26066017 3.1407776 -0.26066017c1.1031036 0 2.1091766 0.05792427 3.018219 0.17377377c0.90904236 0.11584854 1.5525208 0.29444885 1.9304352 0.5358019c0.31663513 0.28962326 0.15830994 0.97023773 -0.47494507 2.0418415c-0.62306213 1.0716057 -1.5014496 2.2011356 -2.6351929 3.3885899c-1.1848145 1.361227 -1.7772217 2.3700829 -1.7772217 3.0265598c0 0.6468258 0.40855408 0.97023773 1.2256622 0.97023773c0 0 0.045959473 0.09171295 0.13789368 0.27514076c0.091918945 0.17377472 0.045959473 0.43926048 -0.13789368 0.796463c0 0.23169899 0.045959473 0.34754753 0.13789368 0.34754753c0.091918945 0 0.4187622 -0.11584854 0.9805298 -0.34754753c0.8171234 -0.12550354 1.853836 -0.4392624 3.110138 -0.94127464c1.2563171 -0.50201416 2.527954 -1.0764332 3.814911 -1.7232552c1.2869415 -0.6564789 2.4309082 -1.2936497 3.4318695 -1.9115124c1.0009613 -0.6275158 1.6597595 -1.119875 1.9763947 -1.4770775c0.37791443 -0.5889015 0.5668793 -1.0185089 0.5668793 -1.2888222c0 -0.27031517 -0.04597473 -0.564764 -0.13789368 -0.8833504c-0.091918945 -0.32823944 -0.17364502 -0.8495617 -0.24513245 -1.5639639c-0.061279297 -0.94610023 -0.43919373 -2.1625175 -1.1337433 -3.64925c-0.68434143 -1.4867306 -2.2470703 -2.732109 -4.6881866 -3.7361364c-0.43920898 -0.17377377 -1.2409973 -0.34754753 -2.4053802 -0.5213213c-1.1643982 -0.18342686 -2.4513397 -0.31858492 -3.8608704 -0.4054718c-1.4095154 -0.09654045 -2.7424316 -0.14481163 -3.9987488 -0.14481163zm56.42711 1.9621954c-0.2809143 0 -0.45199585 0.031375885 -0.51327515 0.094127655c0 0 -0.28598022 0.0144815445 -0.8579712 0.04344368c-0.56173706 0.028962135 -1.3431091 0.15929222 -2.3440857 0.3909912c-3.2684631 0.05792427 -5.954712 0.23652554 -8.058777 0.5358019c-2.0938416 0.2992773 -4.1468506 0.80611706 -6.1589966 1.5205212c-1.6342163 0.34754753 -2.9824524 0.69992065 -4.0447083 1.0571241c-1.0622559 0.35720253 -1.8487244 0.7916374 -2.3594208 1.3033028c-0.5004883 0.5020151 -0.7813721 1.1971102 -0.84265137 2.0852852c0.12257385 0.47305298 0.025527954 1.1102238 -0.29109192 1.9115124c-0.306427 0.8012886 -1.1184235 1.7039471 -2.43602 2.7079754c-0.63327026 0.95575523 -1.3431396 1.9983978 -2.1296082 3.1279278c-0.7762604 1.119875 -1.4146271 1.916338 -1.9151154 2.389389c-0.25534058 0.8302517 -0.60261536 1.4867287 -1.0418091 1.9694366c-0.43919373 0.47305298 -0.6587982 0.8543873 -0.6587982 1.1440105c-0.5617676 0.6564789 -1.1899261 1.592926 -1.8844757 2.8093452c-0.6843262 1.2164154 -1.373764 2.490757 -2.0683136 3.823021c-0.6843262 1.3322678 -1.2818451 2.5486832 -1.7925415 3.64925c-0.5004883 1.1005669 -0.84265137 1.9163399 -1.0265045 2.4473152c0 0.29927444 -0.112350464 0.71439743 -0.3370514 1.2453766c-0.2144928 0.53097534 -0.32174683 1.0619469 -0.32174683 1.5929298c-0.63327026 1.7280846 -1.2460938 3.7650986 -1.838501 6.111042c-0.5924072 2.336296 -1.0009613 4.513298 -1.2256775 6.530998c-0.2144928 2.0177116 -0.102127075 3.4706535 0.33706665 4.3588257c0.30641174 0.17377472 0.44430542 0.39582062 0.41366577 0.6661339c-0.030639648 0.27031326 -0.04597473 0.52132034 -0.04597473 0.75302124c0 0.3571968 0 0.5647621 0 0.6226921c0 0.057922363 0 0.086883545 0 0.086883545c0.31663513 0 0.5975189 0.10619354 0.84265137 0.31858826c0.25535583 0.2027359 0.38302612 0.45374298 0.38302612 0.7530136c0.18385315 0.53097534 0.99586487 1.1826248 2.43602 1.954956c1.4503784 0.77233124 3.0845947 1.4819107 4.9026794 2.1287308c1.8180847 0.6564789 3.3552704 1.1343613 4.6115875 1.4336319c0.4477539 0.028373718 0.89793396 0.042564392 1.3505859 0.042564392c1.3956604 0 2.814621 -0.1348648 4.256851 -0.40459442c1.9100189 -0.3475418 4.499222 -1.0860825 7.767685 -2.2156143c3.5136108 -1.4288025 5.847473 -2.7803802 7.001648 -4.054718c1.1643982 -1.2743416 1.2154541 -2.62109 0.15319824 -4.0402412c-1.1950073 -0.8302574 -2.0274658 -1.3322678 -2.497284 -1.5060425c-0.13128662 -0.051246643 -0.27612305 -0.07687378 -0.43450928 -0.07687378c-0.40847778 0 -0.907135 0.17043686 -1.4959412 0.5113106c-0.69454956 0.24134827 -1.404419 0.5551033 -2.1295776 0.94127274c-0.71499634 0.37651062 -1.3227234 0.74337006 -1.8231812 1.1005669c-1.5116577 0.89783096 -3.28891 1.5832748 -5.3316956 2.056324c-1.3104553 0.3049965 -2.591217 0.45749283 -3.8422394 0.45749283c-0.6893463 0 -1.3696594 -0.04629898 -2.0409698 -0.13890839c-1.8793488 -0.27030945 -3.3807983 -0.9702339 -4.5043335 -2.0997658c-0.43919373 -0.415123 -0.7098694 -1.230896 -0.8120117 -2.4473152c-0.091918945 -1.2164154 -0.030639648 -2.6548767 0.18385315 -4.31538c0.22470093 -1.6605034 0.5566559 -3.3354874 0.99586487 -5.0249596c0.43919373 -1.6894646 0.94477844 -3.1906738 1.5167542 -4.5036354c0.5004883 -1.177803 1.0009613 -2.0321922 1.5014496 -2.5631638c0.5004883 -0.54063416 1.2971649 -0.97506714 2.3900604 -1.3033066c1.1031036 -0.32823944 2.752655 -0.75784683 4.948639 -1.2888222c1.4503784 -0.1737709 2.9875793 -0.3620262 4.611603 -0.5647621c1.6342163 -0.2123909 2.5483704 -0.31858826 2.7424316 -0.31858826c0.80688477 0 1.4452515 -0.043441772 1.9151001 -0.13032913c0.48007202 -0.09654236 0.7200928 -0.14480972 0.7200928 -0.14480972c0.24511719 0 0.7762451 -0.10136795 1.5933533 -0.30410385c0.8171387 -0.21239471 1.6955261 -0.46339798 2.6351929 -0.75302124c0.93969727 -0.29927826 1.7261658 -0.56959534 2.359436 -0.8109436c1.5627136 -0.5889015 2.7373352 -1.4481163 3.5238037 -2.5776443c0.7864685 -1.1295319 0.9601135 -2.1383858 0.52090454 -3.0265617c-0.3673401 -0.7428398 -1.3276672 -1.1142597 -2.881012 -1.1142597c-0.30392456 0 -0.6305237 0.014219284 -0.9798584 0.042655945c-0.69454956 0.06757927 -1.404419 0.20756531 -2.1296082 0.4199524c-0.7149658 0.2027359 -2.0785217 0.47787857 -4.0906677 0.8254261c-1.7567749 0.24135399 -3.2173767 0.55511093 -4.381775 0.94127274c-1.1541748 0.38616562 -1.7312622 0.5792465 -1.7312622 0.5792465c-0.37789917 0 -1.133728 0.07723236 -2.2674866 0.2317009c-1.1235352 0.14480972 -2.063202 0.21721649 -2.819046 0.21721649c-0.6843262 0 -1.1082001 -0.26548767 -1.2716217 -0.796463c-0.1532135 -0.54063034 0.051071167 -1.390192 0.6128235 -2.5486832c0.57199097 -1.1584911 1.4810181 -2.683838 2.7271118 -4.576044c1.3890991 -2.017704 2.6300964 -3.5575333 3.722992 -4.619486c1.1030884 -1.0716057 2.2981262 -1.8584137 3.585083 -2.3604279c1.2869568 -0.51166534 2.8701172 -0.8833504 4.749481 -1.1150475c1.879364 -0.24135399 4.2336426 -0.51166916 7.0629272 -0.8109455c1.3788757 -0.17377281 2.977356 -0.45374107 4.7954407 -0.83990574c1.8180542 -0.38616562 3.4165344 -0.8012924 4.79541 -1.2453794c1.3890991 -0.44408894 2.0836487 -0.8447361 2.0836487 -1.2019348c0.061279297 -0.7144022 -0.3677063 -1.3370914 -1.2869568 -1.8680687c-0.9090271 -0.5309744 -1.9916992 -0.9895439 -3.2480164 -1.3757086c-1.2460938 -0.3861637 -2.3747559 -0.6371708 -3.3859253 -0.7530203c-0.5004883 -0.06275177 -0.8911438 -0.094127655 -1.1720276 -0.094127655zm-126.74832 -2.4979978c-0.12257385 0 -0.32684326 0.077233315 -0.61283875 0.23169851c-0.2757721 0.14481115 -0.58729553 0.35237503 -0.9345703 0.62268925c-0.34727478 0.26066017 -0.7098694 0.5695925 -1.0877838 0.9267931c-0.43919373 0.54063034 -1.1439667 1.3322659 -2.1142883 2.3749084c-0.97032166 1.0329876 -2.2419586 2.4666214 -3.8148956 4.3009014c-0.31663513 0.83025265 -0.74050903 1.6605024 -1.271637 2.490758c-0.5311127 0.8302517 -0.8579712 1.4819031 -0.9805298 1.954956c-0.43919373 0.24135208 -0.81710815 0.6130371 -1.1337433 1.1150475c-0.31663513 0.50201416 -0.63327026 1.0812607 -0.9499054 1.7377377c-0.6230469 0.7723274 -1.4554749 1.9887447 -2.4972992 3.64925c-1.031601 1.6605072 -2.0989532 3.4706497 -3.202057 5.4304314c-1.0928955 1.9501305 -2.1244965 3.7892342 -3.094818 5.5173187c-0.97032166 1.7184296 -1.7414703 3.0217323 -2.3134613 3.9099083c-0.3677063 0.47304916 -0.66389465 0.85921097 -0.88861084 1.158493c-0.2144928 0.28962326 -0.37280273 0.55511093 -0.47494507 0.796463c-0.091926575 0.24134827 -0.19917297 0.46821976 -0.3217392 0.6806145c-0.12256622 0.2027359 -0.31152344 0.47787857 -0.56687164 0.8254242c-0.6230545 0.415123 -1.0622482 0.90748215 -1.3175964 1.4770775c-0.2553482 0.5599365 -0.3830185 0.8399086 -0.3830185 0.8399086c0.071495056 0.11584854 -0.0051116943 0.5888977 -0.22982025 1.4191513c-0.2144928 0.8302536 -0.4647293 1.6460304 -0.75071716 2.4473152c-0.28599548 0.8012924 -0.49027252 1.2936516 -0.61283875 1.4770775c-0.50048065 0.94610214 -0.86307526 1.612236 -1.0877838 1.9983978c-0.2144928 0.3861618 -0.41876984 0.7723236 -0.6128311 1.158493c-0.18385315 0.3861618 -0.4953766 1.0812569 -0.93457794 2.0852852c-0.1917572 0.13066864 -0.332901 0.19600296 -0.4234085 0.19600296c-0.11679077 0 -0.14929199 -0.10877609 -0.09749603 -0.3263359c0.091918945 -0.3861618 0.1685257 -1.4963799 0.22981262 -3.3306618c-0.061286926 -2.316986 -0.1072464 -4.083687 -0.13789368 -5.300102c-0.030639648 -1.2164154 -0.045959473 -2.1335564 -0.045959473 -2.751419c0 -0.6275177 0.061286926 -1.148838 0.18385315 -1.5639648c0.13278198 -0.3571968 0.19916534 -0.830246 0.19916534 -1.4191513c0 -0.5985565 -0.015319824 -1.2357254 -0.045959473 -1.9115105c-0.030639648 -0.68544006 -0.081710815 -1.2357254 -0.15320587 -1.6508522c-0.12256622 -0.88817596 -0.16853333 -2.0128784 -0.13789368 -3.3741074c0.030647278 -1.370884 -0.015319824 -2.529377 -0.13788605 -3.4754753c0.12256622 -1.4191532 0.22981262 -3.0169048 0.3217392 -4.7932606c0.102142334 -1.7860069 0.15320587 -3.5527077 0.15320587 -5.3001003c0 -1.7570457 -0.035743713 -3.2727413 -0.1072464 -4.547081c-0.061279297 -1.2743416 -0.24513245 -2.0901117 -0.5515518 -2.4473152c-0.3166275 -0.4151268 -0.5719757 -0.78198147 -0.766037 -1.1005669c-0.18385315 -0.3282404 -0.33706665 -0.60820866 -0.45963287 -0.8399067c-0.12256622 -0.24135399 -0.21959686 -0.41995335 -0.29109192 -0.53580284c-0.061286926 -0.1255045 -0.1532135 -0.18825436 -0.27577972 -0.18825436c-1.0009613 -0.6564779 -2.1296005 -1.1729736 -3.38591 -1.5494833c-0.7178955 -0.22066593 -1.3223953 -0.33099842 -1.8134995 -0.33099842c-0.36832428 0 -0.6728592 0.062063217 -0.91362 0.18618679c-0.37791443 0.18342781 -0.82221985 0.46822262 -1.3329163 0.85438824c-0.5004883 0.38616467 -0.82733154 0.8012924 -0.9805374 1.2453785c-0.15320587 0.4440899 0.081710815 0.90266037 0.7047577 1.3757095c0.2553482 0.4151268 0.44430542 0.7868109 0.56687164 1.1150484c0.12257385 0.31858444 0.22982025 0.76267433 0.3217392 1.3322659c0.102142334 0.55993843 0.12257385 1.462595 0.061286926 2.7079754c0.12256622 0.8302498 0.2144928 1.6315403 0.2757721 2.4038696c0.061286926 0.7723274 0.12257385 1.4288044 0.18385315 1.9694366c0.071502686 0.53097725 0.1072464 0.8833504 0.1072464 1.0571232c0 0.94610214 -0.035743713 1.8825493 -0.1072464 2.8093433c-0.061279297 0.91713905 -0.025535583 1.7908325 0.1072464 2.621088c-0.13278198 0.71440315 -0.19917297 1.8439331 -0.19917297 3.388588c0 1.5350037 0 3.0893135 0 4.6629295c0 1.5736198 -0.030639648 2.8045158 -0.091926575 3.6926956c0 0.11584854 -0.015319824 0.33789444 -0.045959473 0.6661339c-0.030639648 0.32823563 -0.061286926 0.68543625 -0.091926575 1.0716019c-0.030639648 0.3861618 -0.045959473 0.72406006 -0.045959473 1.0136833c0.061279297 3.205162 0.061279297 6.038639 0 8.500435c-0.061286926 2.461792 -0.2808838 5.05875 -0.6587982 7.7908554c-0.2553482 2.4907608 0.13277435 4.2864227 1.1643829 5.386986c0.817543 0.85606384 1.682251 1.2841034 2.594139 1.2841034c0.25016022 0 0.50387573 -0.032218933 0.7611389 -0.09664917c0.30641174 0.41513062 0.60261536 0.6516571 0.88861084 0.70957947c0.28598785 0.06757355 0.4289856 0.101364136 0.4289856 0.101364136c0.8783951 0.94610596 1.9610672 1.4626007 3.248024 1.5494843c0.102500916 0.0069274902 0.20230865 0.010383606 0.29943085 0.010383606c1.1223145 0 1.885582 -0.46203613 2.289795 -1.3860931c0.30641937 -0.47304535 0.74050903 -1.1826248 1.3022766 -2.1287231c0.57198334 -0.95575714 1.0162888 -1.8198013 1.3329163 -2.592125c0.5004883 -0.70475006 1.0928955 -1.752224 1.7772217 -3.142414c0.69454956 -1.3998413 1.3227081 -2.4569664 1.8844757 -3.1713715c0.43919373 -0.94610214 0.8477478 -1.761879 1.2256622 -2.4473152c0.37791443 -0.68544006 0.69454956 -1.1440086 0.9499054 -1.3757057c0 -0.24135208 0.15319824 -0.49235916 0.45962524 -0.75302124c0.31661987 -0.27031326 0.566864 -0.5551071 0.75071716 -0.8543892c0.25535583 -0.64682007 0.63327026 -1.3274345 1.1337433 -2.0418396c0.5004883 -0.7144089 0.97032166 -1.3950195 1.4095306 -2.0418434c0.31661987 -1.0136795 0.66389465 -1.8439369 1.0418091 -2.490757c0.37791443 -0.6564827 0.5668793 -0.9847183 0.5668793 -0.9847183c-0.061279297 -0.29927444 0 -0.5792465 0.18385315 -0.8399086c0.19406128 -0.27030945 0.5106964 -0.6130295 0.94989014 -1.0281601c0.24513245 -0.71440506 0.58729553 -1.3515778 1.0265045 -1.9115105c0.43919373 -0.55994034 0.7864685 -1.0474739 1.0418091 -1.4625969c0.68434143 -0.8399086 1.2154541 -1.583271 1.5933838 -2.2300987c0.37791443 -0.65647507 0.94477844 -1.7860069 1.7006073 -3.388588c0.12257385 -0.23169708 0.306427 -0.43443298 0.55155945 -0.6082077c0.25534058 -0.18342972 0.32173157 -0.48270798 0.19917297 -0.89783096c0.500473 -0.5889015 0.97032166 -1.1343594 1.4095154 -1.6363697c0.43919373 -0.51166725 0.81710815 -1.1247005 1.1337433 -1.8391075c0.5004883 -0.70475006 1.1592865 -1.6074066 1.9763947 -2.7079735c0.81710815 -1.1005688 1.4452667 -2.065979 1.8844757 -2.8962307c0.6843262 -0.8302517 1.307373 -1.7908325 1.8691406 -2.8817482c0.5719757 -1.1005669 1.138855 -1.945301 1.7006226 -2.5342007c1.2313843 -1.1721497 2.2574158 -2.2878351 3.0781097 -3.3470592l0 0c-0.009307861 0.100512505 -0.016204834 0.20734692 -0.020706177 0.32049847c-0.030639648 0.7626753 -0.015319824 1.4143267 0.04597473 1.9549551c0.25534058 0.5889015 0.75582886 1.0619526 1.5014343 1.4191532c0.34957886 0.16520691 0.6521759 0.24780846 0.9078064 0.24780846c0.29707336 0 0.5307007 -0.111564636 0.7008972 -0.33469582c0.122558594 -0.11584854 0.6230469 -0.24617958 1.5014343 -0.3909912c0.8784027 -0.15446663 1.8997955 -0.30410385 3.0641785 -0.44891548c1.1643982 -0.15446663 2.2164307 -0.26066017 3.1561127 -0.31858635c0.939682 -0.05792427 1.5371857 -0.08688545 1.7925415 -0.08688545c0.24513245 0 0.1481018 0.96541023 -0.29110718 2.8962288c-0.43919373 1.9211674 -1.3788757 5.2566586 -2.8190308 10.006475c-0.12257385 0.5888996 -0.40345764 1.6411991 -0.84265137 3.1568909c-0.43919373 1.5156937 -0.8784027 2.9879456 -1.3175964 4.416748c-0.43919373 1.4191551 -0.7864685 2.3942184 -1.0418243 2.9251938c-0.061279297 0.53097534 -0.31152344 1.5108681 -0.75071716 2.9396744c-0.43920898 1.4191513 -0.9447937 3.0217285 -1.5167694 4.8077393c-0.5617676 1.7763519 -1.0775757 3.4658165 -1.547409 5.0684013c-0.46984863 1.5929298 -0.82733154 2.8045158 -1.072464 3.6347694c-0.37791443 1.3708801 -0.74050903 2.650051 -1.0877838 3.8375053c-0.34727478 1.1874542 -0.61283875 2.1045952 -0.79667664 2.751419l-0.9499054 1.8680649l-4.0447083 0.27514648c-2.6964722 0.11584473 -4.7545776 0.6033783 -6.1743164 1.4625931c-1.4095154 0.8592148 -2.144928 1.6460266 -2.2062073 2.3604279c-0.12257385 0.53097534 0.12767029 1.0329819 0.75071716 1.5060425c0.63327026 0.47304535 1.4197388 0.8254242 2.3594208 1.0571213c0.6349182 0.16307831 1.2558441 0.24461365 1.862793 0.24461365c0.29133606 0 0.57943726 -0.01878357 0.86431885 -0.056358337c1.3175964 -0.104263306 2.4311218 -0.15639496 3.3405762 -0.15639496c0.6062927 0 1.1218872 0.023170471 1.5467987 0.06951141c1.0724487 0.11584473 1.8589325 0.47304535 2.3594055 1.0716019c0.69454956 0.77233124 1.3993073 1.158493 2.1142883 1.158493c0.7251892 0 1.3380127 -0.19308472 1.838501 -0.5792465c0.5004883 -0.3861618 0.7507324 -0.72888184 0.7507324 -1.0281601c0.07148743 -0.415123 0.49536133 -0.71440125 1.2716217 -0.8978348c0.7864685 -0.17377472 2.104065 -0.33789825 3.9527893 -0.49235535c1.8589325 -0.14481354 4.4175262 -0.33306885 7.675766 -0.56476593c3.5135803 -0.115852356 5.7248993 -0.53097534 6.6339417 -1.2453766c0.90904236 -0.7144089 0.7047577 -1.8439407 -0.61283875 -3.3885956c-0.18385315 -0.415123 -0.29109192 -0.7819824 -0.32173157 -1.100563c-0.030639648 -0.32823944 -0.21960449 -0.5937271 -0.5668793 -0.796463c-0.34727478 -0.21238708 -1.0418243 -0.31858826 -2.0836334 -0.31858826c-1.0316162 0 -2.6454163 0.14964294 -4.8414 0.44891357c-1.6240234 0.23170471 -3.2071686 0.39582062 -4.749481 0.49236298c-1.5320892 0.086883545 -2.2981262 0.13033295 -2.2981262 0.13033295c0.5617676 -2.2011375 1.138855 -4.325039 1.7312622 -6.371708c0.60261536 -2.0466728 1.2920532 -4.3877907 2.0683136 -7.0233574c0.7864685 -2.6452217 1.6853027 -5.8938293 2.6964722 -9.745815c0 -0.29927444 0.07661438 -0.7578392 0.22981262 -1.3757095c0.1532135 -0.6275139 0.32684326 -1.2067604 0.5209198 -1.7377357c0.18383789 -0.4151268 0.4953766 -1.2888222 0.9345703 -2.62109c0.43919373 -1.332264 0.9243622 -2.8286476 1.4554749 -4.489155c0.5413513 -1.6605072 1.0622559 -3.2486076 1.5627441 -4.7642975c0.500473 -1.5156956 0.873291 -2.659706 1.1184235 -3.4320335c0.43919373 -1.361227 0.81710815 -2.6355686 1.1337433 -3.8230228c0.31661987 -1.1874542 0.41366577 -1.8970318 0.29109192 -2.1287289c0.24513245 -0.29927826 0.44430542 -0.56476593 0.5975189 -0.796463c0.16342163 -0.24135399 0.36769104 -0.48270798 0.61283875 -0.72405815c0.13276672 -0.23169804 0.6230469 -0.48270416 1.4707947 -0.75301933c0.84776306 -0.27031612 2.3389893 -0.5213213 4.473694 -0.7530203c1.6240234 -0.1255045 3.1714325 -0.24617958 4.642227 -0.36202812c1.4810181 -0.115849495 2.502411 -0.26548672 3.0641785 -0.44891644c0.08937073 0.0056324005 0.17555237 0.008446693 0.25854492 0.008446693c0.9128723 0 1.4395294 -0.34071064 1.5799713 -1.0221272c0.16342163 -0.74336433 0.08680725 -1.6508493 -0.22981262 -2.722456c-0.43920898 -1.361228 -1.2869568 -2.172172 -2.543274 -2.4328327c-0.49545288 -0.10660219 -1.1664276 -0.15990448 -2.0129395 -0.15990448c-1.2999878 0 -3.0139618 0.1257081 -5.1419067 0.37712145c-1.378891 0.115849495 -2.6811523 0.18825483 -3.9068298 0.21721697c-0.13618469 0.0032196045 -0.26789856 0.004828453 -0.39512634 0.004828453c-1.017868 0 -1.7492218 -0.1029768 -2.194107 -0.3089323c-0.18725586 -0.019308567 -0.3733673 -0.028962135 -0.5583496 -0.028962135c-0.36997986 0 -0.7354126 0.038615704 -1.0962982 0.11584902c-0.5311279 0.115849495 -1.0775757 0.29445124 -1.6393433 0.53580236c-0.5617523 0.47305107 -1.3788757 0.9026575 -2.4513397 1.2888222c-1.0622406 0.3861637 -2.129593 0.6371708 -3.202057 0.7530203c-1.4401703 0.24135208 -3.0692902 0.555109 -4.8873596 0.94127464c-1.8180847 0.37650967 -3.467636 0.77232647 -4.948654 1.1874542c-0.9044647 0.25528336 -1.6138763 0.49960995 -2.1282349 0.73298454l0 0c0.4691162 -0.6197195 0.7875366 -1.0088587 0.95529175 -1.1674194c0.12257385 -0.29927826 -0.2093811 -0.8495617 -0.9958496 -1.6508503c-0.7762604 -0.80129147 -1.6546631 -1.5543108 -2.6351929 -2.25906c-0.97032166 -0.7144036 -1.7057343 -1.134357 -2.2062073 -1.2598596zm151.93188 -3.0016708c-0.9930725 0 -2.0293274 0.054454803 -3.1088257 0.16336536c-1.8180847 0.17377377 -3.5289307 0.4392624 -5.1325073 0.7964635c-1.5933838 0.3572011 -2.89563 0.72888327 -3.9068298 1.1150484c-1.000946 0.38616323 -1.532074 0.7578454 -1.5933533 1.1150484c0 0 0.015319824 0.19308281 0.045959473 0.57924604c0.030639648 0.38616323 0.10723877 0.69509554 0.22979736 0.9267936c0.13278198 0.35720062 0.43408203 0.80611706 0.90393066 1.3467464c0.46984863 0.53097534 1.0009766 0.9605818 1.5933838 1.2888222c0.43441772 0.23362923 0.81118774 0.35044384 1.1302795 0.35044384c0.11602783 0 0.22442627 -0.015446663 0.3251953 -0.046339035c0.13278198 0.05792427 0.39834595 0.13033009 0.7966919 0.21721745c0.11141968 0.023697853 0.23577881 0.035544395 0.37301636 0.035544395c0.3659973 0 0.82385254 -0.08425236 1.3735657 -0.25276184l1.0418091 0.44891548l-0.65878296 2.9251919c-1.0111694 2.259059 -1.7516785 4.2622843 -2.221527 6.009677c-0.46984863 1.7473927 -0.8579712 3.0072536 -1.1643982 3.779581c-0.19406128 0.35720253 -0.5413208 1.1440105 -1.0418091 2.360426c-0.5004883 1.2164173 -1.0213928 2.5969524 -1.5627441 4.141609c-0.5311279 1.5350018 -1.0469055 3.074831 -1.5473938 4.619486c-0.8171387 2.7900352 -1.445282 4.687069 -1.884491 5.6910934c-0.24511719 0.7723274 -0.66900635 1.9597816 -1.2716064 3.5623627c-0.5924072 1.6025772 -1.2359009 3.3547974 -1.9304504 5.2566566c-0.6843262 1.8922005 -1.3124695 3.731308 -1.8844604 5.5173187c-0.5617676 1.7763519 -0.9958496 3.2292938 -1.3022766 4.3588257c-0.51071167 1.7184258 -0.7200928 3.2148132 -0.6281433 4.4891586c0.004852295 0.06088257 0.00982666 0.12106323 0.014892578 0.18052673l0 0c-0.0049743652 -0.0022506714 -0.0099487305 -0.004508972 -0.014892578 -0.0067596436c-0.5172119 -0.23744202 -0.9783325 -0.35617065 -1.3833008 -0.35617065c-0.15481567 0 -0.30145264 0.017356873 -0.4399109 0.052070618c-1.133728 0.17377472 -1.9355164 0.70474243 -2.405365 1.592926c-0.46984863 0.88817596 -0.6281433 1.8970337 -0.47494507 3.026558c0.16342163 1.1295319 0.5566406 2.138382 1.179718 3.0265656c0.93966675 1.1295242 1.6138 1.9018555 2.0223389 2.3169785c0.40856934 0.415123 1.1184387 0.7723236 2.1296082 1.0716095c1.9406433 0.47304535 3.758728 0.8109436 5.4542236 1.0136795c0.90979004 0.113960266 1.7475281 0.17094421 2.513214 0.17094421c0.6612854 0 1.2687988 -0.042503357 1.8226013 -0.12750244c0.93969727 -0.17377472 2.236847 -0.32341766 3.89151 -0.44891357c1.6648865 -0.115852356 3.2480164 -0.2654953 4.749481 -0.4489212c1.5116577 -0.17376709 2.4258118 -0.376503 2.7424316 -0.6082077c0.6230469 -0.29927063 1.2818604 -0.5840683 1.9763794 -0.8543854c0.69454956 -0.26065826 1.353363 -0.5985565 1.9764099 -1.0136795c1.2563171 -0.47304535 2.6351929 -1.2164154 4.136627 -2.230095c1.5116577 -1.0040283 3.018219 -2.0997696 4.5196533 -3.2872238c1.5116882 -1.1874542 2.8599243 -2.3411179 4.044739 -3.460991c1.1950073 -1.1295319 2.0427551 -2.0514984 2.5432434 -2.7659035c0 -0.24134827 0.045959473 -0.3620262 0.13790894 -0.3620262l0.15319824 0c0.2451477 0 0.526001 -0.13033295 0.84265137 -0.3909912c0.31661987 -0.27031326 0.5055847 -0.6130333 0.566864 -1.0281639c0.3166504 -0.24134827 0.74053955 -0.69991684 1.271637 -1.3757095c0.5311279 -0.6854439 0.92437744 -1.1150475 1.179718 -1.2888222c0.6843262 -0.8302536 1.0264893 -1.3950195 1.0264893 -1.694294c-0.24511719 -0.057922363 -0.260437 -0.13032913 -0.045959473 -0.21721649c0.22470093 -0.09653854 0.45962524 -0.14481354 0.70477295 -0.14481354c0.63323975 -1.0040283 1.3737488 -2.408699 2.221527 -4.214012c0.8477478 -1.8149719 1.6290894 -3.7313156 2.3440857 -5.749016c0.7251892 -2.0177116 1.1490784 -3.7940636 1.271637 -5.3290634c0.31661987 -0.8399086 0.6639099 -1.8342819 1.0418091 -2.9831161c0.3779297 -1.158493 0.59750366 -1.8294525 0.6588135 -2.0128822c-0.2553711 -0.11584854 -0.3677063 -0.33306503 -0.33706665 -0.6516495c0.030639648 -0.32824326 0.112335205 -0.6130371 0.24511719 -0.8543892c0.306427 -0.35720062 0.44430542 -1.1440086 0.41366577 -2.360426c-0.030639648 -1.2164173 -0.14297485 -2.4762783 -0.33703613 -3.779581c-0.18386841 -1.3033028 -0.3677063 -2.3121586 -0.5515747 -3.0265598c-0.63323975 -2.6066074 -1.9048767 -5.0973644 -3.8148804 -7.472273c-1.9100037 -2.3749084 -4.0293884 -4.4215765 -6.358185 -6.140008c-2.3185425 -1.7184286 -4.4838867 -2.9348454 -6.4960327 -3.649249c-1.6853027 -0.5888996 -3.722992 -1.1777992 -6.113037 -1.7667003c-2.3798523 -0.5985546 -4.3868713 -0.9557557 -6.021118 -1.0716052c-0.63900757 -0.05098629 -1.2982178 -0.07647848 -1.9776917 -0.07647848z" fill-rule="evenodd"/></g></svg>